<svg width="376" height="48" viewBox="0 0 376 48" fill="none" xmlns="http://www.w3.org/2000/svg">
<path fill-rule="evenodd" clip-rule="evenodd" d="M5.65806 0.0683594C6.47122 0.068423 7.17135 0.359014 7.65317 0.657227C8.09978 0.933731 8.71676 1.44023 9.08774 2.24902L25.5897 35.3125L42.0907 2.24902C42.4616 1.43995 43.0795 0.933777 43.5262 0.657227C44.008 0.358991 44.7081 0.0684589 45.5213 0.0683594H47.9833C48.7607 0.0684087 49.9863 0.353516 50.7225 1.5498C51.4116 2.66973 51.1826 3.81144 50.9334 4.43457L50.8915 4.54004L50.8407 4.64062L30.2596 45.8711L30.2586 45.874C29.8949 46.6012 29.3143 47.0781 28.9276 47.3359C28.5498 47.5878 27.8042 47.9998 26.8553 48H24.3934C23.4533 48 22.719 47.6246 22.286 47.3359C21.832 47.0332 21.4556 46.659 21.1795 46.291L21.0311 46.0928L0.338721 4.64062L0.288916 4.54004L0.246924 4.43457C-0.0022597 3.81149 -0.232237 2.66978 0.456885 1.5498C1.19306 0.353533 2.41867 0.0684329 3.19614 0.0683594H5.65806ZM115.197 0.0683594C115.949 0.0683594 116.596 0.326098 116.905 0.461914C117.233 0.606206 117.575 0.79351 117.875 1.00293L118.001 1.09375L118.211 1.25098L118.386 1.44531L148.018 34.1299V3.4873C148.018 1.81567 149.342 0.0683594 151.437 0.0683594H153.488C154.549 0.0683594 155.38 0.57099 155.892 1.08301C156.404 1.59507 156.907 2.42683 156.907 3.4873V44.5137C156.907 46.609 155.16 47.9326 153.488 47.9326H150.685C150.055 47.9326 149.476 47.7652 149.062 47.5996C148.647 47.4333 148.077 47.1408 147.589 46.6523L147.542 46.6064L147.498 46.5576L117.932 14.0049V44.5137C117.932 46.609 116.185 47.9326 114.514 47.9326H112.463C111.636 47.9326 110.734 47.645 110.032 46.9434C109.331 46.2418 109.044 45.3402 109.044 44.5137V3.4873C109.044 1.81567 110.367 0.0683594 112.463 0.0683594H115.197ZM202.364 0.0683594C203.424 0.0683676 204.256 0.570993 204.768 1.08301C205.28 1.59508 205.783 2.42685 205.783 3.4873V5.53906C205.783 7.63424 204.036 8.95702 202.364 8.95703H188.006V44.5137C188.006 46.6088 186.258 47.9325 184.587 47.9326H182.535C181.708 47.9326 180.807 47.6449 180.105 46.9434C179.404 46.2418 179.116 45.3403 179.116 44.5137V8.95703H167.834C167.223 8.95697 166.638 8.81625 166.16 8.625C165.786 8.4754 165.176 8.17548 164.669 7.60938L162.276 5.21582L162.059 4.98242C161.542 4.37796 161.007 3.34906 161.486 2.03125C162.13 0.261213 163.859 0.0684713 164.415 0.0683594H202.364ZM236.84 0.0683594C244.888 0.068518 251.541 6.39744 251.541 14.291C251.541 20.753 247.181 26.2204 241.251 27.9072L256.073 42.7842L256.24 42.9639C256.418 43.1671 256.622 43.4443 256.779 43.7979C256.992 44.2763 257.211 45.1277 256.832 46.0762C256.448 47.0358 255.688 47.5056 255.178 47.7061C254.684 47.8999 254.229 47.9326 253.934 47.9326H250.515C249.372 47.9326 248.199 47.4329 247.419 46.6523L225.47 24.7031L225.252 24.4697C224.735 23.8652 224.201 22.8359 224.68 21.5186C225.324 19.7481 227.054 19.5557 227.609 19.5557H237.387C240.244 19.5556 242.607 17.2235 242.652 14.3164V14.291C242.652 11.5016 240.195 8.95718 236.84 8.95703H216.395C215.781 8.95703 215.204 8.81503 214.746 8.63867C214.302 8.46785 213.724 8.17145 213.23 7.67773L213.203 7.65039L210.821 5.19824C210.261 4.64339 209.505 3.52222 210.047 2.03125C210.691 0.260692 212.421 0.0683594 212.976 0.0683594H236.84ZM268.375 0.0683594C269.435 0.0684034 270.266 0.571104 270.778 1.08301C271.29 1.59507 271.794 2.42683 271.794 3.4873V44.5137C271.794 46.6089 270.046 47.9325 268.375 47.9326H266.323C265.497 47.9325 264.595 47.6449 263.893 46.9434C263.192 46.2418 262.904 45.3403 262.904 44.5137V3.4873C262.904 1.81576 264.228 0.0685358 266.323 0.0683594H268.375ZM308.414 19.5557C310.509 19.5557 311.833 21.303 311.833 22.9746V25.0264C311.833 25.8529 311.545 26.7545 310.844 27.4561C310.142 28.1575 309.24 28.4443 308.414 28.4443H291.252V44.5137C291.252 46.6089 289.504 47.9325 287.833 47.9326H285.781C284.955 47.9325 284.053 47.6449 283.351 46.9434C282.65 46.2418 282.362 45.3403 282.362 44.5137V27.4189C282.362 23.129 285.82 19.5559 290.225 19.5557H308.414ZM333.316 0.0683594C334.377 0.0683594 335.208 0.570988 335.721 1.08301C336.233 1.59507 336.735 2.42683 336.735 3.4873V12.5811C336.735 13.4426 337.253 14.6768 338.865 15.8213L339.332 16.1514C341.058 17.233 343.331 17.8467 345.967 17.8467H357.591C360.156 17.8466 362.423 17.2366 364.152 16.1543L364.623 15.8213C366.286 14.6408 366.821 13.3948 366.821 12.5811V3.4873C366.821 1.81567 368.145 0.0683594 370.24 0.0683594H372.291C373.351 0.0683594 374.183 0.571007 374.695 1.08301C375.207 1.59507 375.71 2.42683 375.71 3.4873V12.5811C375.71 14.708 375.065 16.7443 374.051 18.5195L373.869 18.8369L373.767 18.9385C372.822 20.4334 371.585 21.7997 369.956 22.9551L369.879 23.0332L369.675 23.1748C366.291 25.5113 361.972 26.7353 357.591 26.7354H356.223V44.5137C356.222 46.609 354.475 47.9326 352.804 47.9326H350.753C349.926 47.9326 349.025 47.6448 348.323 46.9434C347.622 46.2418 347.334 45.3403 347.334 44.5137V26.7354H345.967C341.523 26.7354 337.202 25.5138 333.814 23.1748L333.609 23.0332L333.514 22.9375C331.993 21.8177 330.699 20.4715 329.723 18.9404L329.619 18.8369L329.437 18.5195C328.383 16.6738 327.847 14.6335 327.847 12.5811V3.4873C327.847 1.81567 329.17 0.0683594 331.265 0.0683594H333.316ZM97.7752 38.9746C98.8355 38.9748 99.6666 39.4782 100.179 39.9902C100.691 40.5023 101.193 41.3333 101.193 42.3936V44.4453C101.193 46.5404 99.4466 47.864 97.7752 47.8643H60.1678C59.3413 47.8643 58.4397 47.5764 57.7381 46.875C57.0366 46.1735 56.749 45.2719 56.7489 44.4453V42.3936C56.7489 40.722 58.0724 38.9746 60.1678 38.9746H97.7752ZM26.9647 45.252C26.927 45.2588 26.8907 45.2656 26.8553 45.2656L26.9208 45.2617C26.9354 45.26 26.9497 45.2547 26.9647 45.252ZM27.0086 45.2432C27.0361 45.2365 27.0636 45.2283 27.0917 45.2188C27.0637 45.2283 27.0361 45.2365 27.0086 45.2432ZM27.1502 45.1982C27.1874 45.1832 27.2247 45.1665 27.2616 45.1475C27.2247 45.1665 27.1874 45.1832 27.1502 45.1982ZM182.46 45.1934L182.535 45.1973C182.497 45.1973 182.46 45.1922 182.424 45.1875C182.436 45.1891 182.448 45.1923 182.46 45.1934ZM184.587 45.1973L184.65 45.1934C184.661 45.1923 184.672 45.1891 184.682 45.1875C184.651 45.1922 184.619 45.1973 184.587 45.1973ZM253.933 45.1973H253.934L254.007 45.1943C254.018 45.1935 254.03 45.1907 254.041 45.1895C254.008 45.193 253.972 45.1973 253.933 45.1973ZM285.706 45.1934L285.781 45.1973C285.742 45.1973 285.705 45.1923 285.669 45.1875C285.681 45.1891 285.693 45.1923 285.706 45.1934ZM287.833 45.1973L287.896 45.1934C287.907 45.1923 287.918 45.1891 287.929 45.1875C287.897 45.1922 287.865 45.1973 287.833 45.1973ZM250.203 45.1602C250.255 45.1715 250.307 45.1815 250.358 45.1875C250.307 45.1815 250.255 45.1715 250.203 45.1602ZM114.765 45.1475V45.1484V45.1475ZM150.401 45.1602C150.446 45.1703 150.491 45.1787 150.533 45.1846C150.491 45.1787 150.446 45.1703 150.401 45.1602ZM153.739 45.1475V45.1484V45.1475ZM268.626 45.1475V45.1484V45.1475ZM350.473 45.1475C350.514 45.1635 350.559 45.1763 350.605 45.1846C350.559 45.1763 350.514 45.1635 350.473 45.1475ZM353.055 45.1475V45.1484V45.1475ZM254.088 45.1826C254.116 45.1777 254.14 45.1709 254.163 45.1631C254.14 45.1709 254.116 45.1777 254.088 45.1826ZM184.732 45.1787C184.759 45.1726 184.785 45.1636 184.811 45.1543C184.785 45.1636 184.759 45.1726 184.732 45.1787ZM285.528 45.1543C285.556 45.1636 285.584 45.1726 285.613 45.1787C285.584 45.1726 285.556 45.1636 285.528 45.1543ZM287.978 45.1787C288.005 45.1726 288.031 45.1636 288.057 45.1543C288.031 45.1636 288.005 45.1726 287.978 45.1787ZM182.283 45.1543C182.31 45.1633 182.337 45.1718 182.365 45.1777C182.337 45.1718 182.31 45.1633 182.283 45.1543ZM250.051 45.1201C250.099 45.1353 250.148 45.1483 250.197 45.1592C250.148 45.1483 250.099 45.1352 250.051 45.1201ZM150.245 45.1182C150.294 45.1336 150.343 45.1471 150.391 45.1582C150.343 45.1471 150.294 45.1336 150.245 45.1182ZM254.18 45.1582C254.208 45.1469 254.23 45.1331 254.249 45.1172C254.23 45.1331 254.208 45.1469 254.18 45.1582ZM182.164 45.1016C182.189 45.1162 182.215 45.1293 182.243 45.1406C182.215 45.1293 182.189 45.1162 182.164 45.1016ZM184.85 45.1406C184.875 45.1303 184.898 45.1175 184.921 45.1045C184.898 45.1175 184.875 45.1303 184.85 45.1406ZM285.41 45.1016C285.435 45.1162 285.461 45.1293 285.489 45.1406C285.461 45.1293 285.435 45.1162 285.41 45.1016ZM288.097 45.1406C288.121 45.1303 288.144 45.1175 288.167 45.1045C288.144 45.1175 288.121 45.1303 288.097 45.1406ZM27.536 44.9658C27.4563 45.0309 27.3672 45.0908 27.2752 45.1396C27.3672 45.0908 27.4563 45.0309 27.536 44.9658ZM60.0926 45.125L60.1678 45.1289C60.1294 45.1289 60.0924 45.1238 60.0565 45.1191C60.0683 45.1207 60.0805 45.124 60.0926 45.125ZM97.7752 45.1289L97.8387 45.125C97.8492 45.124 97.8595 45.1207 97.87 45.1191C97.8385 45.1238 97.807 45.1289 97.7752 45.1289ZM150.102 45.0693C150.143 45.0849 150.183 45.0983 150.223 45.1113C150.183 45.0983 150.143 45.0849 150.102 45.0693ZM59.9256 45.0898C59.9488 45.0973 59.9723 45.1042 59.9969 45.1094C59.9723 45.1042 59.9488 45.0973 59.9256 45.0898ZM97.9227 45.1094C97.9445 45.1044 97.9658 45.098 97.9872 45.0908C97.9658 45.098 97.9445 45.1044 97.9227 45.1094ZM249.914 45.0713C249.944 45.0831 249.974 45.0942 250.004 45.1045C249.974 45.0942 249.944 45.0831 249.914 45.0713ZM181.964 44.9141C182.008 44.9822 182.066 45.0391 182.134 45.084C182.066 45.0391 182.009 44.9822 181.964 44.9141ZM185.137 44.918C185.087 44.9844 185.026 45.04 184.958 45.084C185.026 45.04 185.087 44.9844 185.137 44.918ZM285.21 44.9141C285.255 44.9822 285.312 45.0391 285.38 45.084C285.312 45.0391 285.255 44.9821 285.21 44.9141ZM288.386 44.9141C288.335 44.9822 288.273 45.0391 288.204 45.084C288.273 45.0391 288.335 44.9822 288.386 44.9141ZM254.282 45.0781C254.283 45.0761 254.285 45.0744 254.286 45.0723C254.285 45.0744 254.283 45.0761 254.282 45.0781ZM59.8065 45.0381C59.8266 45.0493 59.8464 45.0612 59.868 45.0703C59.8464 45.0612 59.8266 45.0493 59.8065 45.0381ZM98.0448 45.0693C98.0648 45.0606 98.0841 45.0506 98.1034 45.04C98.0841 45.0506 98.0648 45.0606 98.0448 45.0693ZM149.964 45.0098C149.987 45.0204 150.01 45.0302 150.033 45.04C150.01 45.0302 149.987 45.0204 149.964 45.0098ZM249.773 45.0088C249.795 45.0194 249.817 45.0302 249.839 45.04C249.817 45.0302 249.795 45.0194 249.773 45.0088ZM59.6717 44.9404C59.7 44.9687 59.7317 44.9933 59.7655 45.0156C59.7317 44.9933 59.7 44.9687 59.6717 44.9404ZM98.3251 44.8486C98.2754 44.9153 98.2147 44.9714 98.1463 45.0156C98.2147 44.9715 98.2754 44.9153 98.3251 44.8486ZM149.797 44.9219C149.829 44.941 149.863 44.96 149.897 44.9775C149.863 44.96 149.829 44.941 149.797 44.9219ZM254.298 44.9756C254.295 44.959 254.291 44.9419 254.284 44.9238C254.291 44.9419 254.295 44.9589 254.298 44.9756ZM249.619 44.9238C249.647 44.9413 249.676 44.9584 249.706 44.9746C249.676 44.9585 249.647 44.9413 249.619 44.9238ZM149.674 44.8418C149.702 44.8617 149.73 44.8817 149.761 44.9004C149.73 44.8817 149.702 44.8617 149.674 44.8418ZM249.463 44.8164C249.5 44.8459 249.54 44.8734 249.581 44.9004C249.54 44.8734 249.5 44.8459 249.463 44.8164ZM254.139 44.7188C254.203 44.7833 254.248 44.8443 254.274 44.8994C254.262 44.8736 254.246 44.8455 254.225 44.8174L254.139 44.7188H254.139ZM288.403 44.8867C288.421 44.8606 288.436 44.8336 288.45 44.8047C288.436 44.8336 288.421 44.8606 288.403 44.8867ZM181.907 44.8057C181.917 44.831 181.93 44.8547 181.943 44.8779C181.93 44.8547 181.917 44.831 181.907 44.8057ZM285.155 44.8096C285.165 44.8335 285.177 44.8559 285.189 44.8779C285.177 44.8559 285.165 44.8335 285.155 44.8096ZM185.163 44.877C185.178 44.8537 185.192 44.8301 185.204 44.8047C185.192 44.8301 185.178 44.8537 185.163 44.877ZM27.6815 44.8291C27.6981 44.8111 27.7129 44.7925 27.7274 44.7744C27.7129 44.7925 27.698 44.8111 27.6815 44.8291ZM249.352 44.7188C249.386 44.7525 249.423 44.785 249.463 44.8164C249.423 44.785 249.386 44.7525 249.352 44.7188ZM149.522 44.7188C149.554 44.7503 149.59 44.7801 149.628 44.8096C149.59 44.7801 149.554 44.7503 149.522 44.7188ZM98.3534 44.8047C98.3663 44.7841 98.3788 44.7634 98.3895 44.7412C98.3788 44.7634 98.3663 44.7841 98.3534 44.8047ZM59.5389 44.7373C59.548 44.7596 59.5599 44.7801 59.5711 44.8008C59.5599 44.7801 59.548 44.7596 59.5389 44.7373ZM288.467 44.7646C288.478 44.7369 288.487 44.7085 288.494 44.6787C288.487 44.7085 288.478 44.737 288.467 44.7646ZM185.223 44.7607C185.233 44.7343 185.241 44.7071 185.248 44.6787C185.241 44.7071 185.233 44.7343 185.223 44.7607ZM181.869 44.6787C181.874 44.7054 181.882 44.7309 181.889 44.7559C181.881 44.7309 181.874 44.7054 181.869 44.6787ZM285.116 44.6816C285.121 44.7072 285.128 44.7318 285.136 44.7559C285.128 44.7318 285.121 44.7072 285.116 44.6816ZM2.7479 3.29492C2.75643 3.33492 2.769 3.37644 2.78599 3.41895L23.367 44.6504H23.368L2.78599 3.41895C2.76901 3.37651 2.75645 3.33486 2.7479 3.29492ZM27.7694 44.7188C27.7733 44.7129 27.7784 44.708 27.7821 44.7021L27.8124 44.6504C27.8009 44.6732 27.7853 44.6952 27.7694 44.7188ZM59.5028 44.6191C59.508 44.6434 59.5149 44.6666 59.5223 44.6895C59.5149 44.6666 59.508 44.6434 59.5028 44.6191ZM98.4139 44.6816C98.4217 44.6606 98.4287 44.6394 98.4344 44.6172C98.4287 44.6394 98.4217 44.6606 98.4139 44.6816ZM181.851 44.5137L181.854 44.5889C181.856 44.6041 181.859 44.619 181.861 44.6338C181.856 44.5952 181.851 44.5552 181.851 44.5137ZM285.098 44.5137L285.101 44.5889C285.102 44.6011 285.105 44.6131 285.106 44.625C285.102 44.5891 285.098 44.5521 285.098 44.5137ZM59.4872 44.5205C59.4882 44.5325 59.4915 44.544 59.493 44.5557C59.4884 44.52 59.4842 44.4834 59.4842 44.4453L59.4872 44.5205ZM98.4452 42.2812C98.4444 42.2777 98.444 42.2741 98.4432 42.2705C98.444 42.2741 98.4444 42.2777 98.4452 42.2812ZM98.4325 42.2363C98.4238 42.2068 98.4152 42.1769 98.4022 42.1484C98.4152 42.1769 98.4238 42.2068 98.4325 42.2363ZM59.5311 42.1484C59.5249 42.1643 59.5215 42.181 59.5165 42.1973C59.5215 42.181 59.5249 42.1643 59.5311 42.1484ZM59.5868 42.0361C59.572 42.0603 59.5595 42.0857 59.5477 42.1113C59.5595 42.0857 59.572 42.0603 59.5868 42.0361ZM98.3807 42.1104C98.3669 42.0844 98.3527 42.0586 98.3358 42.0342C98.3527 42.0586 98.3669 42.0844 98.3807 42.1104ZM98.3094 42.001C98.2917 41.9782 98.2739 41.9554 98.2538 41.9346C98.2739 41.9554 98.2917 41.9782 98.3094 42.001ZM59.661 41.9365C59.6453 41.9541 59.6317 41.9732 59.618 41.9922C59.6317 41.9732 59.6453 41.9541 59.661 41.9365ZM98.2167 41.8994C98.1968 41.8813 98.1766 41.8636 98.1551 41.8477C98.1766 41.8636 98.1968 41.8813 98.2167 41.8994ZM59.7567 41.8477C59.7368 41.8629 59.719 41.8803 59.701 41.8975C59.719 41.8803 59.7368 41.8629 59.7567 41.8477ZM59.867 41.7803C59.8435 41.7919 59.8214 41.8053 59.7997 41.8193C59.8214 41.8053 59.8435 41.7919 59.867 41.7803ZM98.1092 41.8164C98.089 41.8035 98.0688 41.791 98.0477 41.7803C98.0688 41.791 98.0891 41.8035 98.1092 41.8164ZM59.992 41.7344C59.9678 41.7407 59.9445 41.7481 59.9217 41.7568C59.9445 41.7481 59.9678 41.7407 59.992 41.7344ZM97.992 41.7568C97.9707 41.7482 97.9494 41.7406 97.9276 41.7344C97.9494 41.7406 97.9707 41.7482 97.992 41.7568ZM87.5184 19.4873C88.5785 19.4874 89.4097 19.9901 89.9217 20.502C90.4338 21.014 90.9374 21.8458 90.9374 22.9062V24.958C90.9371 27.0532 89.1899 28.3759 87.5184 28.376H60.1678C59.3413 28.376 58.4397 28.0891 57.7381 27.3877C57.0366 26.6862 56.749 25.7846 56.7489 24.958V22.9062C56.7489 21.2346 58.0724 19.4873 60.1678 19.4873H87.5184ZM285.103 27.166C285.099 27.2498 285.098 27.3342 285.098 27.4189C285.098 27.3312 285.1 27.244 285.104 27.1572L285.103 27.166ZM285.155 26.6514C285.144 26.7254 285.135 26.8 285.127 26.875C285.135 26.8 285.144 26.7254 285.155 26.6514ZM285.255 26.1562C285.246 26.1922 285.238 26.2284 285.229 26.2646C285.238 26.2284 285.246 26.1922 285.255 26.1562ZM285.396 25.6904C285.382 25.7314 285.369 25.773 285.355 25.8145C285.369 25.773 285.382 25.7314 285.396 25.6904ZM238.546 25.6504C238.164 25.6891 237.778 25.71 237.387 25.71C237.778 25.71 238.165 25.6891 238.546 25.6504ZM308.414 25.71L308.489 25.7061C308.499 25.7052 308.509 25.7014 308.519 25.7002C308.485 25.7044 308.45 25.71 308.414 25.71ZM308.594 25.6875C308.615 25.6826 308.636 25.6766 308.657 25.6699C308.636 25.6766 308.615 25.6826 308.594 25.6875ZM308.715 25.6494C308.738 25.6397 308.759 25.6282 308.78 25.6162C308.759 25.6282 308.738 25.6397 308.715 25.6494ZM60.0926 25.6377L60.1678 25.6416C60.1305 25.6416 60.0944 25.6363 60.0594 25.6318C60.0703 25.6332 60.0815 25.6367 60.0926 25.6377ZM87.5184 25.6416L87.5829 25.6377C87.5928 25.6367 87.6023 25.6333 87.6122 25.6318C87.581 25.6364 87.5499 25.6416 87.5184 25.6416ZM239.679 25.4766C239.334 25.5472 238.984 25.601 238.629 25.6396C238.984 25.601 239.334 25.5472 239.679 25.4766ZM59.9247 25.6016C59.9467 25.6086 59.9687 25.616 59.992 25.6211C59.9687 25.616 59.9467 25.6086 59.9247 25.6016ZM87.6698 25.6211C87.6917 25.6159 87.7129 25.6089 87.7342 25.6016C87.7128 25.6089 87.6917 25.6159 87.6698 25.6211ZM308.823 25.5908C308.844 25.5763 308.864 25.5599 308.883 25.543C308.864 25.5599 308.844 25.5763 308.823 25.5908ZM59.7997 25.5469C59.8232 25.5604 59.8471 25.5733 59.8729 25.584C59.8471 25.5733 59.8232 25.5604 59.7997 25.5469ZM87.7831 25.584C87.8069 25.5738 87.8297 25.5616 87.8524 25.5488C87.8297 25.5616 87.807 25.5738 87.7831 25.584ZM59.6717 25.4531C59.7 25.4814 59.7317 25.506 59.7655 25.5283C59.7317 25.506 59.7 25.4814 59.6717 25.4531ZM88.0692 25.3604C88.0193 25.4275 87.9583 25.4839 87.8895 25.5283C87.9583 25.4839 88.0193 25.4275 88.0692 25.3604ZM285.483 25.4648C285.476 25.4836 285.468 25.5026 285.461 25.5215C285.468 25.5026 285.476 25.4836 285.483 25.4648ZM308.919 25.5098C308.934 25.4943 308.946 25.477 308.959 25.46C308.946 25.477 308.934 25.4943 308.919 25.5098ZM239.736 25.4639C239.902 25.4291 240.066 25.3915 240.228 25.3496C240.066 25.3915 239.902 25.4291 239.736 25.4639ZM308.997 25.4082C309.01 25.3862 309.021 25.3629 309.032 25.3389C309.021 25.3629 309.01 25.3862 308.997 25.4082ZM240.307 25.3281C240.464 25.2865 240.62 25.2424 240.774 25.1943C240.62 25.2424 240.464 25.2865 240.307 25.3281ZM88.0926 25.3242C88.1083 25.3001 88.1231 25.2755 88.1356 25.249C88.1231 25.2755 88.1082 25.3001 88.0926 25.3242ZM59.5389 25.25C59.548 25.2723 59.5599 25.2928 59.5711 25.3135C59.5599 25.2928 59.548 25.2723 59.5389 25.25ZM309.051 25.2979C309.063 25.2635 309.072 25.2272 309.08 25.1895C309.072 25.2272 309.063 25.2635 309.051 25.2979ZM88.1522 25.209C88.1632 25.1813 88.1722 25.1529 88.1795 25.123C88.1722 25.1529 88.1631 25.1813 88.1522 25.209ZM59.5028 25.1318C59.508 25.1561 59.5149 25.1793 59.5223 25.2021C59.5149 25.1793 59.508 25.1561 59.5028 25.1318ZM309.085 25.1699C309.093 25.1242 309.097 25.0764 309.098 25.0264V25.0254C309.098 25.0756 309.093 25.124 309.085 25.1699ZM240.869 25.1621C241.009 25.117 241.149 25.0709 241.287 25.0205C241.149 25.0709 241.009 25.117 240.869 25.1621ZM285.69 25.0215C285.677 25.0475 285.665 25.0743 285.651 25.1006C285.665 25.0743 285.677 25.0475 285.69 25.0215ZM59.4872 25.0332C59.4882 25.0451 59.4915 25.0567 59.493 25.0684C59.4884 25.0327 59.4842 24.9961 59.4842 24.958L59.4872 25.0332ZM241.46 24.9531C241.573 24.9098 241.686 24.8671 241.797 24.8203C241.686 24.8671 241.573 24.9098 241.46 24.9531ZM285.94 24.5986C285.916 24.6363 285.892 24.6746 285.868 24.7129C285.892 24.6746 285.916 24.6363 285.94 24.5986ZM242.06 24.7031C242.137 24.6684 242.215 24.635 242.291 24.5986C242.215 24.635 242.137 24.6684 242.06 24.7031ZM242.547 24.4697C242.629 24.4279 242.711 24.3865 242.792 24.3428C242.711 24.3865 242.629 24.4279 242.547 24.4697ZM286.227 24.2051C286.199 24.24 286.171 24.2749 286.144 24.3105C286.171 24.2749 286.199 24.24 286.227 24.2051ZM242.987 24.2324C243.078 24.1808 243.17 24.1302 243.26 24.0762C243.17 24.1302 243.078 24.1808 242.987 24.2324ZM286.401 24C286.363 24.0427 286.326 24.0859 286.289 24.1299C286.326 24.0859 286.363 24.0427 286.401 24ZM357.591 24C357.832 24 358.073 23.9957 358.313 23.9873C358.073 23.9957 357.832 24 357.591 24ZM358.481 23.9785C358.66 23.9708 358.839 23.9624 359.016 23.9502C358.839 23.9624 358.66 23.9708 358.481 23.9785ZM343.762 23.8857V23.8867V23.8857ZM243.491 23.9307C243.568 23.8815 243.645 23.8322 243.722 23.7812C243.645 23.8322 243.568 23.8815 243.491 23.9307ZM286.543 23.8477C286.516 23.875 286.491 23.9028 286.465 23.9307C286.491 23.9028 286.516 23.875 286.543 23.8477ZM359.246 23.9307C359.416 23.917 359.586 23.9035 359.755 23.8857C359.586 23.9035 359.416 23.917 359.246 23.9307ZM359.848 23.875C360.048 23.8532 360.246 23.8293 360.443 23.8018C360.246 23.8293 360.048 23.8532 359.848 23.875ZM360.667 23.7666C360.826 23.7426 360.984 23.719 361.141 23.6914C360.984 23.719 360.826 23.7426 360.667 23.7666ZM286.707 23.6855C286.68 23.7107 286.654 23.736 286.628 23.7617C286.654 23.736 286.68 23.7107 286.707 23.6855ZM361.389 23.6445C361.531 23.6178 361.673 23.5912 361.813 23.5615C361.673 23.5912 361.531 23.6178 361.389 23.6445ZM243.94 23.6289C244.015 23.5762 244.09 23.5242 244.164 23.4697C244.09 23.5242 244.015 23.5762 243.94 23.6289ZM362.088 23.5C362.233 23.4672 362.378 23.4344 362.521 23.3984C362.378 23.4344 362.233 23.4672 362.088 23.5ZM362.703 23.3506C362.862 23.3092 363.02 23.2669 363.177 23.2217C363.02 23.2669 362.862 23.3092 362.703 23.3506ZM244.387 23.2988C244.459 23.2421 244.532 23.1854 244.603 23.127C244.532 23.1854 244.459 23.2421 244.387 23.2988ZM287.292 23.209C287.25 23.2384 287.208 23.2682 287.167 23.2988C287.208 23.2682 287.25 23.2384 287.292 23.209ZM287.471 23.0898C287.439 23.1099 287.408 23.1297 287.377 23.1504C287.408 23.1297 287.439 23.1099 287.471 23.0898ZM363.43 23.1455C363.561 23.1057 363.691 23.0659 363.821 23.0234C363.691 23.0659 363.561 23.1057 363.43 23.1455ZM244.759 22.9961C244.847 22.9208 244.936 22.8455 245.022 22.7676C244.936 22.8455 244.847 22.9208 244.759 22.9961ZM364.098 22.9287C364.215 22.8883 364.331 22.8482 364.447 22.8057C364.331 22.8482 364.215 22.8883 364.098 22.9287ZM88.1883 22.7939C88.1875 22.7901 88.1873 22.7861 88.1864 22.7822C88.1873 22.7861 88.1875 22.7901 88.1883 22.7939ZM227.265 22.6123C227.291 22.6653 227.337 22.7197 227.403 22.7695L227.317 22.6895C227.295 22.6639 227.278 22.638 227.265 22.6123ZM88.1766 22.749C88.1679 22.7193 88.1584 22.6897 88.1454 22.6611C88.1584 22.6897 88.1679 22.7193 88.1766 22.749ZM59.5311 22.6611C59.5249 22.677 59.5215 22.6937 59.5165 22.71C59.5215 22.6937 59.5249 22.677 59.5311 22.6611ZM364.789 22.6748C364.881 22.6386 364.974 22.6021 365.065 22.5645C364.974 22.6021 364.881 22.6386 364.789 22.6748ZM245.183 22.6182C245.259 22.5473 245.334 22.4762 245.408 22.4033C245.334 22.4762 245.259 22.5473 245.183 22.6182ZM59.5868 22.5488C59.5759 22.5666 59.5677 22.5858 59.5584 22.6045C59.5677 22.5858 59.5759 22.5666 59.5868 22.5488ZM88.1073 22.5928C88.0992 22.5791 88.0919 22.565 88.0829 22.5518C88.0919 22.565 88.0992 22.5791 88.1073 22.5928ZM227.242 22.5352C227.244 22.5483 227.249 22.5607 227.253 22.5742C227.249 22.5608 227.244 22.5483 227.242 22.5352ZM59.661 22.4492C59.6453 22.4668 59.6317 22.4859 59.618 22.5049C59.6317 22.4859 59.6453 22.4668 59.661 22.4492ZM88.0438 22.502C88.0284 22.4829 88.0131 22.4639 87.9959 22.4463C88.0131 22.4639 88.0284 22.4829 88.0438 22.502ZM289.092 22.417C289.042 22.4281 288.992 22.4386 288.943 22.4512C288.992 22.4386 289.042 22.4281 289.092 22.417ZM365.391 22.4258C365.493 22.3815 365.595 22.337 365.695 22.291C365.595 22.337 365.493 22.3815 365.391 22.4258ZM87.9598 22.4121C87.9396 22.3937 87.9192 22.3756 87.8973 22.3594C87.9192 22.3756 87.9396 22.3937 87.9598 22.4121ZM59.7567 22.3604C59.7368 22.3756 59.719 22.393 59.701 22.4102C59.719 22.393 59.7368 22.3756 59.7567 22.3604ZM59.867 22.293C59.8435 22.3046 59.8214 22.3179 59.7997 22.332C59.8214 22.3179 59.8435 22.3046 59.867 22.293ZM87.8573 22.332C87.8347 22.3174 87.8117 22.304 87.7879 22.292C87.8117 22.304 87.8347 22.3174 87.8573 22.332ZM227.445 22.3105C227.426 22.3152 227.409 22.3208 227.392 22.3271C227.409 22.3208 227.426 22.3152 227.445 22.3105ZM289.686 22.3184C289.689 22.3181 289.692 22.3177 289.695 22.3174L289.703 22.3164C289.697 22.317 289.692 22.3178 289.686 22.3184ZM227.536 22.2939C227.525 22.2949 227.514 22.2984 227.504 22.2998C227.536 22.2954 227.571 22.291 227.609 22.291L227.536 22.2939ZM87.7401 22.2705C87.7166 22.2608 87.6929 22.2529 87.6688 22.2461C87.6929 22.2529 87.7166 22.2608 87.7401 22.2705ZM59.992 22.2471C59.9678 22.2534 59.9445 22.2608 59.9217 22.2695C59.9445 22.2608 59.9678 22.2534 59.992 22.2471ZM245.581 22.2266C245.65 22.1551 245.72 22.084 245.787 22.0107C245.72 22.084 245.65 22.1551 245.581 22.2266ZM365.983 22.1553C366.088 22.1047 366.193 22.0535 366.297 22.001C366.193 22.0535 366.088 22.1047 365.983 22.1553ZM366.573 21.8574C366.674 21.8038 366.774 21.7498 366.874 21.6943C366.774 21.7498 366.674 21.8038 366.573 21.8574ZM246.004 21.7666C246.049 21.7143 246.095 21.6625 246.139 21.6094C246.095 21.6625 246.049 21.7143 246.004 21.7666ZM335.3 20.8555L335.368 20.9238V20.9229C335.3 20.8545 335.3 20.8545 335.3 20.8545C335.248 20.8174 335.197 20.7798 335.145 20.7422C335.197 20.7799 335.248 20.8183 335.3 20.8555ZM367.154 21.5332C367.253 21.4756 367.35 21.417 367.447 21.3574C367.35 21.417 367.253 21.4756 367.154 21.5332ZM246.321 21.3828C246.375 21.3157 246.428 21.249 246.48 21.1807C246.428 21.249 246.375 21.3157 246.321 21.3828ZM368.188 20.8545C368.188 20.8549 368.183 20.8598 368.12 20.9229C367.978 21.0206 367.833 21.1136 367.687 21.207C367.741 21.1728 367.796 21.1412 367.848 21.1064L368.121 20.9238C368.176 20.8689 368.186 20.8576 368.188 20.8555V20.8545ZM246.662 20.9346C246.708 20.8708 246.753 20.8069 246.798 20.7422C246.753 20.8069 246.708 20.8708 246.662 20.9346ZM246.963 20.4951C247.01 20.4224 247.057 20.3492 247.102 20.2754C247.057 20.3492 247.01 20.4224 246.963 20.4951ZM369.483 19.835V19.8359V19.835ZM247.247 20.0342C247.289 19.9626 247.331 19.8909 247.371 19.8184C247.331 19.8909 247.289 19.9626 247.247 20.0342ZM247.513 19.5557C247.554 19.4758 247.595 19.3954 247.635 19.3145C247.595 19.3954 247.554 19.4758 247.513 19.5557ZM247.738 19.0967C247.784 18.9985 247.83 18.9004 247.873 18.8008C247.83 18.9004 247.784 18.9985 247.738 19.0967ZM247.962 18.5869C247.999 18.4953 248.036 18.4034 248.071 18.3105C248.036 18.4033 247.999 18.4953 247.962 18.5869ZM337.35 18.1201C337.362 18.1284 337.375 18.1353 337.387 18.1436L337.351 18.1201C337.351 18.1201 337.334 18.1202 337.316 18.1113L337.35 18.1201ZM248.174 18.0264C248.202 17.9456 248.229 17.8647 248.256 17.7832C248.229 17.8647 248.202 17.9456 248.174 18.0264ZM248.331 17.5391C248.361 17.439 248.39 17.3385 248.417 17.2373C248.39 17.3385 248.361 17.439 248.331 17.5391ZM331.812 17.1621V17.1631L331.881 17.2305L331.812 17.1621ZM248.477 16.9971C248.501 16.8992 248.524 16.801 248.546 16.7021C248.524 16.801 248.501 16.8992 248.477 16.9971ZM248.603 16.4209C248.621 16.3295 248.636 16.2376 248.651 16.1455C248.636 16.2376 248.621 16.3295 248.603 16.4209ZM248.692 15.8799C248.707 15.7755 248.72 15.6707 248.732 15.5654C248.72 15.6707 248.707 15.7755 248.692 15.8799ZM248.755 15.3359C248.765 15.2266 248.773 15.117 248.78 15.0068C248.773 15.117 248.765 15.2266 248.755 15.3359ZM248.79 13.7041C248.8 13.8985 248.806 14.0944 248.806 14.291C248.806 14.4366 248.799 14.5813 248.794 14.7256C248.796 14.6788 248.8 14.6319 248.802 14.585L248.806 14.291C248.806 14.0973 248.801 13.9044 248.791 13.7129L248.79 13.7041ZM248.564 12C248.609 12.21 248.647 12.422 248.68 12.6357C248.647 12.422 248.609 12.21 248.564 12ZM248.509 11.7627C248.484 11.6592 248.461 11.5556 248.433 11.4531C248.461 11.5556 248.484 11.6592 248.509 11.7627ZM248.35 11.167C248.325 11.0822 248.301 10.9971 248.274 10.9131C248.301 10.9971 248.325 11.0822 248.35 11.167ZM248.218 10.749C248.175 10.6244 248.133 10.4998 248.087 10.377C248.133 10.4998 248.175 10.6244 248.218 10.749ZM248.026 10.2256C247.979 10.106 247.931 9.98678 247.88 9.86914C247.931 9.98678 247.979 10.106 248.026 10.2256ZM243.688 9.46875C243.801 9.6106 243.906 9.75744 244.009 9.90625C243.906 9.75744 243.801 9.61061 243.688 9.46875ZM247.77 9.63281C247.729 9.5431 247.688 9.45277 247.644 9.36426C247.688 9.45277 247.729 9.5431 247.77 9.63281ZM247.539 9.16309C247.488 9.06495 247.437 8.96665 247.383 8.87012C247.437 8.96666 247.488 9.06495 247.539 9.16309ZM319.97 0.0683594C321.03 0.0683693 321.862 0.570965 322.374 1.08301C322.886 1.59508 323.389 2.42685 323.389 3.4873V5.53906C323.388 7.63424 321.641 8.95702 319.97 8.95703H285.439C284.828 8.957 284.244 8.81626 283.765 8.625C283.39 8.47496 282.777 8.17311 282.269 7.60352L279.882 5.21582L279.664 4.98242C279.147 4.3779 278.613 3.34878 279.092 2.03125C279.736 0.261023 281.465 0.0684312 282.02 0.0683594H319.97ZM97.7752 0C98.8354 0.00015003 99.6666 0.502732 100.179 1.01465C100.691 1.52672 101.193 2.35848 101.193 3.41895V5.46973C101.193 7.565 99.4467 8.88842 97.7752 8.88867H63.245C62.634 8.88867 62.0484 8.74793 61.5702 8.55664C61.1991 8.40818 60.5954 8.11133 60.0907 7.55371L57.7147 5.24316L57.6864 5.2168C57.3203 4.85067 56.3336 3.65621 56.8719 2.04102C57.4807 0.215029 59.2442 0 59.826 0H97.7752ZM247.247 8.63867C247.201 8.56126 247.156 8.48353 247.108 8.40723C247.156 8.48353 247.201 8.56125 247.247 8.63867ZM246.887 8.06836C246.86 8.02868 246.834 7.98856 246.806 7.94922C246.834 7.98856 246.86 8.02868 246.887 8.06836ZM246.591 7.65039C246.552 7.59787 246.513 7.54504 246.473 7.49316C246.513 7.54504 246.552 7.59786 246.591 7.65039ZM115.404 7.28906V7.29004V7.28906ZM246.282 7.25293C246.229 7.18732 246.177 7.12112 246.122 7.05664C246.177 7.12112 246.229 7.18732 246.282 7.25293ZM245.947 6.85742C245.878 6.77982 245.81 6.7018 245.739 6.62598C245.81 6.70181 245.878 6.77981 245.947 6.85742ZM238.975 6.47754L238.974 6.47656L238.975 6.47754ZM245.581 6.46191C245.506 6.38452 245.431 6.30684 245.353 6.23145C245.431 6.30685 245.506 6.38451 245.581 6.46191ZM216.07 6.18555C216.126 6.19709 216.181 6.20682 216.235 6.21289L216.395 6.22266H236.84C236.987 6.22266 237.134 6.22544 237.279 6.23242C237.134 6.22543 236.987 6.22168 236.84 6.22168H216.395C216.293 6.22168 216.183 6.20879 216.07 6.18555ZM167.514 6.18652C167.568 6.19766 167.622 6.20697 167.675 6.21289L167.834 6.22266H181.851V6.22168H167.834C167.733 6.22165 167.624 6.2092 167.514 6.18652ZM202.364 6.22168V6.22266L202.429 6.21875C202.439 6.2177 202.449 6.21347 202.46 6.21191C202.428 6.21661 202.396 6.22168 202.364 6.22168ZM285.12 6.18652C285.174 6.19764 285.228 6.20697 285.28 6.21289L285.439 6.22266H319.97L320.034 6.21875C320.045 6.2177 320.055 6.21347 320.065 6.21191C320.033 6.21662 320.002 6.22168 319.97 6.22168H285.439C285.339 6.22166 285.23 6.20919 285.12 6.18652ZM202.517 6.20117C202.539 6.19599 202.561 6.18992 202.582 6.18262C202.561 6.18992 202.539 6.19599 202.517 6.20117ZM320.123 6.20117C320.145 6.19598 320.166 6.18992 320.187 6.18262C320.166 6.18993 320.145 6.19598 320.123 6.20117ZM167.348 6.14453C167.401 6.16036 167.454 6.17335 167.508 6.18457C167.454 6.17336 167.401 6.16035 167.348 6.14453ZM284.957 6.14551C285.009 6.16084 285.061 6.17363 285.113 6.18457C285.061 6.17363 285.009 6.16084 284.957 6.14551ZM215.909 6.14551C215.959 6.15987 216.008 6.1721 216.057 6.18262C216.008 6.17211 215.959 6.15986 215.909 6.14551ZM202.628 6.16602C202.653 6.15516 202.678 6.1418 202.702 6.12793C202.678 6.1418 202.653 6.15516 202.628 6.16602ZM320.233 6.16602C320.259 6.15516 320.283 6.1418 320.307 6.12793C320.283 6.1418 320.259 6.15516 320.233 6.16602ZM97.7752 6.1543L97.8387 6.15039C97.8482 6.14945 97.8576 6.14589 97.867 6.14453C97.8365 6.1489 97.8061 6.15427 97.7752 6.1543ZM97.9286 6.13281C97.9488 6.12799 97.9684 6.12188 97.9881 6.11523C97.9684 6.12188 97.9488 6.12798 97.9286 6.13281ZM167.197 6.0918C167.234 6.10609 167.271 6.11968 167.309 6.13184C167.271 6.11968 167.234 6.10608 167.197 6.0918ZM215.749 6.0918C215.788 6.10649 215.828 6.11939 215.868 6.13184C215.828 6.1194 215.788 6.10647 215.749 6.0918ZM284.802 6.0918C284.839 6.10632 284.877 6.11951 284.916 6.13184C284.877 6.11952 284.839 6.10631 284.802 6.0918ZM202.917 5.93848C202.867 6.00663 202.806 6.06445 202.736 6.10938C202.806 6.06444 202.867 6.00665 202.917 5.93848ZM320.342 6.10938C320.368 6.0921 320.394 6.07264 320.418 6.05176C320.394 6.07264 320.368 6.0921 320.342 6.10938ZM62.7596 6.07617C62.7962 6.08706 62.8331 6.09674 62.87 6.10547C62.8331 6.09675 62.7962 6.08706 62.7596 6.07617ZM98.0409 6.09668C98.0645 6.08658 98.0868 6.07418 98.1092 6.06152C98.0868 6.07419 98.0645 6.08657 98.0409 6.09668ZM284.642 6.02148C284.68 6.04031 284.719 6.05766 284.759 6.07422C284.719 6.05767 284.68 6.0403 284.642 6.02148ZM215.593 6.02637C215.628 6.04287 215.664 6.05852 215.701 6.07324C215.664 6.05853 215.628 6.04286 215.593 6.02637ZM167.043 6.02441C167.077 6.04126 167.112 6.05725 167.147 6.07227C167.112 6.05726 167.077 6.04125 167.043 6.02441ZM62.6209 6.0293C62.654 6.04179 62.6877 6.05268 62.7215 6.06348C62.6877 6.05268 62.654 6.04179 62.6209 6.0293ZM98.3251 5.87402C98.2754 5.9407 98.2147 5.99683 98.1463 6.04102C98.2147 5.99686 98.2754 5.94067 98.3251 5.87402ZM245.15 6.04102C245.083 5.97876 245.017 5.91623 244.948 5.85547C245.017 5.91623 245.083 5.97876 245.15 6.04102ZM284.513 5.94824C284.546 5.96917 284.58 5.98978 284.616 6.00879C284.58 5.98979 284.546 5.96916 284.513 5.94824ZM166.891 5.93848C166.928 5.96244 166.967 5.9853 167.008 6.00684C166.967 5.98531 166.928 5.96243 166.891 5.93848ZM320.463 6.00684C320.484 5.98511 320.504 5.96308 320.522 5.93848C320.504 5.96308 320.484 5.98511 320.463 6.00684ZM215.441 5.94824C215.475 5.9679 215.51 5.98691 215.547 6.00488C215.51 5.98692 215.475 5.96789 215.441 5.94824ZM62.4793 5.96875C62.4999 5.97852 62.5207 5.98796 62.5418 5.99707C62.5207 5.98796 62.4999 5.97852 62.4793 5.96875ZM166.79 5.86328C166.816 5.88536 166.844 5.90715 166.875 5.92773C166.844 5.90716 166.816 5.88535 166.79 5.86328ZM62.3329 5.88867C62.3526 5.90084 62.3725 5.9133 62.3934 5.9248C62.3725 5.91329 62.3526 5.90085 62.3329 5.88867ZM215.304 5.85938C215.335 5.88184 215.367 5.90386 215.401 5.9248C215.367 5.90387 215.335 5.88183 215.304 5.85938ZM284.399 5.86621C284.422 5.88506 284.446 5.90412 284.472 5.92188C284.446 5.90412 284.422 5.88506 284.399 5.86621ZM320.54 5.91211C320.557 5.88599 320.573 5.85896 320.587 5.83008C320.573 5.85895 320.557 5.88599 320.54 5.91211ZM202.938 5.90625C202.954 5.88189 202.969 5.85679 202.981 5.83008C202.969 5.85679 202.954 5.88189 202.938 5.90625ZM62.2001 5.79492C62.2257 5.81629 62.2528 5.83745 62.2821 5.85742C62.2528 5.83745 62.2257 5.8163 62.2001 5.79492ZM166.751 5.83105C166.753 5.8331 166.755 5.83488 166.758 5.83691C166.725 5.80685 166.696 5.77534 166.672 5.74316L166.751 5.83105ZM215.196 5.77051C215.22 5.79269 215.245 5.8158 215.272 5.83691C215.245 5.81581 215.22 5.79269 215.196 5.77051ZM284.277 5.74316C284.301 5.77538 284.33 5.80681 284.363 5.83691C284.33 5.80682 284.301 5.77537 284.277 5.74316ZM98.3534 5.83008C98.3672 5.8082 98.3811 5.78643 98.3924 5.7627C98.3811 5.78643 98.3671 5.80819 98.3534 5.83008ZM202.999 5.78711C203.009 5.76237 203.018 5.73736 203.024 5.71094C203.017 5.73736 203.009 5.76237 202.999 5.78711ZM320.604 5.78711C320.614 5.76237 320.623 5.73736 320.63 5.71094C320.623 5.73735 320.614 5.76238 320.604 5.78711ZM62.1083 5.7041C62.1267 5.72559 62.1455 5.74808 62.1678 5.76855C62.1455 5.74807 62.1267 5.7256 62.1083 5.7041ZM98.4129 5.70898C98.421 5.68732 98.4286 5.66551 98.4344 5.64258C98.4286 5.66551 98.421 5.68731 98.4129 5.70898ZM244.743 5.67969C244.67 5.6174 244.596 5.55471 244.521 5.49414C244.596 5.55472 244.67 5.6174 244.743 5.67969ZM244.289 5.3125C244.219 5.25919 244.15 5.20615 244.079 5.1543C244.15 5.20615 244.219 5.25918 244.289 5.3125ZM243.837 4.98242C243.764 4.93151 243.69 4.8804 243.616 4.83105C243.69 4.88041 243.764 4.93151 243.837 4.98242ZM243.369 4.67285C243.294 4.62582 243.219 4.57866 243.143 4.5332C243.219 4.57866 243.294 4.62582 243.369 4.67285ZM242.876 4.37793C242.801 4.33545 242.725 4.29386 242.648 4.25293C242.725 4.29387 242.801 4.33545 242.876 4.37793ZM242.365 4.10645C242.292 4.0698 242.219 4.03328 242.145 3.99805C242.219 4.03329 242.292 4.0698 242.365 4.10645ZM241.861 3.86816C241.778 3.83101 241.694 3.79414 241.61 3.75879C241.694 3.79414 241.778 3.83101 241.861 3.86816ZM241.334 3.64746C241.248 3.61378 241.161 3.58062 241.074 3.54883C241.161 3.58062 241.248 3.61378 241.334 3.64746ZM240.795 3.45117C240.707 3.42152 240.619 3.39198 240.53 3.36426C240.619 3.39198 240.707 3.42152 240.795 3.45117ZM6.61509 3.41895L6.55357 3.30176C6.55268 3.3004 6.55153 3.29921 6.55064 3.29785C6.57648 3.33699 6.59848 3.37742 6.61509 3.41895ZM48.4325 3.07422C48.4495 3.1397 48.4497 3.21451 48.4325 3.29492C48.4496 3.21448 48.4496 3.13972 48.4325 3.07422ZM203.036 3.37793C203.035 3.37305 203.034 3.36814 203.033 3.36328C203.034 3.36814 203.035 3.37305 203.036 3.37793ZM98.4452 3.30566C98.4444 3.3021 98.444 3.29847 98.4432 3.29492C98.444 3.29847 98.4444 3.3021 98.4452 3.30566ZM203.014 3.30371C203.006 3.28311 203 3.26222 202.991 3.24219C203 3.26223 203.006 3.2831 203.014 3.30371ZM59.537 3.18262C59.5601 3.21526 59.5878 3.24909 59.6209 3.28223C59.5878 3.24906 59.5601 3.21529 59.537 3.18262ZM281.677 3.12305C281.702 3.17666 281.748 3.23178 281.815 3.28223L281.729 3.20215C281.707 3.17597 281.689 3.14937 281.677 3.12305ZM320.611 3.28223C320.606 3.26897 320.602 3.25519 320.597 3.24219C320.602 3.25519 320.606 3.26897 320.611 3.28223ZM240.22 3.27246C240.139 3.24976 240.059 3.22717 239.978 3.20605C240.059 3.22718 240.139 3.24976 240.22 3.27246ZM212.686 3.2041C212.701 3.22057 212.719 3.23496 212.737 3.25098C212.719 3.23498 212.701 3.22056 212.686 3.2041ZM6.5145 3.25098C6.49679 3.22796 6.47918 3.20442 6.45884 3.18262C6.47918 3.20443 6.49679 3.22795 6.5145 3.25098ZM44.7206 3.18262C44.7002 3.20442 44.6826 3.22797 44.6649 3.25098C44.6826 3.22795 44.7002 3.20443 44.7206 3.18262ZM164.126 3.2041C164.138 3.21757 164.152 3.22901 164.167 3.24219C164.152 3.22902 164.138 3.21756 164.126 3.2041ZM98.4198 3.22266C98.4139 3.20646 98.4094 3.18966 98.4022 3.17383C98.4094 3.18966 98.4139 3.20646 98.4198 3.22266ZM202.97 3.20215C202.957 3.17791 202.943 3.15377 202.928 3.13086C202.943 3.15378 202.957 3.1779 202.97 3.20215ZM320.575 3.20215C320.562 3.17791 320.549 3.15377 320.533 3.13086C320.549 3.15378 320.562 3.1779 320.575 3.20215ZM164.071 3.12305C164.081 3.14394 164.096 3.16369 164.112 3.18457C164.096 3.16371 164.081 3.14392 164.071 3.12305ZM212.634 3.12598C212.642 3.14243 212.654 3.15736 212.666 3.17383C212.654 3.15738 212.642 3.14242 212.634 3.12598ZM98.3807 3.13574C98.3669 3.10979 98.3527 3.084 98.3358 3.05957C98.3527 3.08399 98.3669 3.1098 98.3807 3.13574ZM6.40903 3.13477C6.39201 3.11877 6.37548 3.10203 6.35728 3.08691C6.37549 3.10204 6.39201 3.11876 6.40903 3.13477ZM44.8211 3.08691C44.803 3.10203 44.7864 3.11877 44.7694 3.13477C44.7864 3.11876 44.803 3.10204 44.8211 3.08691ZM239.652 3.12598C239.568 3.10648 239.484 3.08809 239.399 3.07031C239.484 3.08809 239.568 3.10648 239.652 3.12598ZM164.049 3.04688C164.05 3.0603 164.055 3.07312 164.059 3.08691C164.055 3.07312 164.05 3.0603 164.049 3.04688ZM281.654 3.04688C281.656 3.06031 281.661 3.07311 281.665 3.08691C281.661 3.07311 281.656 3.06031 281.654 3.04688ZM212.609 3.04688C212.611 3.05804 212.615 3.06864 212.618 3.08008C212.615 3.06864 212.611 3.05804 212.609 3.04688ZM320.493 3.08008C320.48 3.06412 320.468 3.04718 320.454 3.03223C320.468 3.04719 320.48 3.06411 320.493 3.08008ZM202.886 3.07715C202.873 3.06215 202.862 3.04633 202.848 3.03223C202.862 3.04634 202.873 3.06214 202.886 3.07715ZM59.4588 2.99805C59.4604 3.01229 59.4656 3.02612 59.4696 3.04102C59.4656 3.02611 59.4604 3.0123 59.4588 2.99805ZM98.3094 3.02637C98.2917 3.00354 98.2739 2.98083 98.2538 2.95996C98.2739 2.98083 98.2917 3.00354 98.3094 3.02637ZM6.27036 3.02246C6.2596 3.01499 6.24913 3.00715 6.23814 3C6.24913 3.00715 6.2596 3.01499 6.27036 3.02246ZM44.9403 3C44.9293 3.00715 44.9188 3.01499 44.9081 3.02246C44.9188 3.01499 44.9293 3.00716 44.9403 3ZM239.068 3.00586C238.991 2.99184 238.914 2.9784 238.836 2.96582C238.914 2.97841 238.991 2.99184 239.068 3.00586ZM320.398 2.98145C320.384 2.96879 320.37 2.95588 320.354 2.94434C320.37 2.95589 320.384 2.96878 320.398 2.98145ZM202.792 2.98047C202.778 2.96814 202.764 2.9556 202.749 2.94434C202.764 2.95561 202.778 2.96813 202.792 2.98047ZM48.329 2.9082C48.3456 2.92248 48.3599 2.93833 48.3729 2.95508C48.3599 2.93836 48.3456 2.92246 48.329 2.9082ZM6.15708 2.95215C6.137 2.941 6.117 2.92996 6.09653 2.91992C6.11701 2.92996 6.13699 2.941 6.15708 2.95215ZM45.0829 2.91895C45.062 2.92916 45.0418 2.94078 45.0213 2.95215C45.0418 2.94078 45.062 2.92916 45.0829 2.91895ZM98.2167 2.9248C98.1968 2.90666 98.1766 2.88904 98.1551 2.87305C98.1766 2.88904 98.1968 2.90666 98.2167 2.9248ZM238.478 2.91309C238.394 2.90191 238.309 2.8913 238.223 2.88184C238.309 2.8913 238.394 2.90191 238.478 2.91309ZM202.698 2.91016C202.677 2.89673 202.656 2.88417 202.634 2.87305C202.656 2.88417 202.677 2.89672 202.698 2.91016ZM320.304 2.91016C320.282 2.89673 320.261 2.88417 320.239 2.87305C320.261 2.88418 320.282 2.89672 320.304 2.91016ZM45.2206 2.86133C45.1948 2.87041 45.1691 2.8806 45.1434 2.8916C45.1691 2.88059 45.1948 2.87041 45.2206 2.86133ZM6.02134 2.88672C6.00211 2.87875 5.98299 2.87115 5.96372 2.86426C5.983 2.87115 6.00211 2.87875 6.02134 2.88672ZM237.895 2.85059C237.805 2.84299 237.715 2.83574 237.624 2.83008C237.715 2.83574 237.805 2.84298 237.895 2.85059ZM202.582 2.84961C202.563 2.84179 202.543 2.83496 202.523 2.8291C202.543 2.83497 202.563 2.84178 202.582 2.84961ZM320.187 2.84961C320.168 2.84178 320.149 2.83497 320.129 2.8291C320.149 2.83497 320.168 2.84178 320.187 2.84961ZM98.1092 2.8418C98.089 2.82891 98.0688 2.81644 98.0477 2.80566C98.0688 2.81644 98.089 2.82891 98.1092 2.8418ZM45.3495 2.82422C45.3297 2.82857 45.3099 2.83417 45.2899 2.83984C45.3099 2.83417 45.3297 2.82857 45.3495 2.82422ZM164.252 2.82324C164.233 2.82793 164.215 2.83354 164.199 2.83984C164.215 2.83352 164.233 2.82794 164.252 2.82324ZM212.814 2.82227C212.795 2.82707 212.777 2.8333 212.76 2.83984C212.777 2.83328 212.795 2.82708 212.814 2.82227ZM281.857 2.82324C281.838 2.82792 281.821 2.83354 281.805 2.83984C281.821 2.83353 281.838 2.82793 281.857 2.82324ZM5.88462 2.83887C5.86587 2.83366 5.84746 2.82827 5.82896 2.82422C5.84747 2.82827 5.86586 2.83366 5.88462 2.83887ZM164.343 2.80664C164.331 2.80763 164.321 2.81105 164.31 2.8125C164.342 2.80809 164.377 2.80373 164.415 2.80371L164.343 2.80664ZM212.903 2.80664C212.892 2.80767 212.881 2.81099 212.87 2.8125C212.902 2.80796 212.938 2.80371 212.976 2.80371L212.903 2.80664ZM281.948 2.80664C281.937 2.80763 281.926 2.81106 281.916 2.8125C281.948 2.8081 281.983 2.80372 282.02 2.80371L281.948 2.80664ZM5.75571 2.81152C5.74491 2.81007 5.73411 2.80764 5.72349 2.80664L5.65806 2.80371L5.75571 2.81152ZM45.4559 2.80664C45.4449 2.80767 45.4339 2.81 45.4227 2.81152C45.4566 2.80692 45.4895 2.80373 45.5213 2.80371L45.4559 2.80664ZM97.992 2.78223C97.9707 2.7736 97.9494 2.766 97.9276 2.75977C97.9494 2.766 97.9707 2.7736 97.992 2.78223ZM59.6659 2.75391C59.645 2.75899 59.626 2.76534 59.6083 2.77246C59.626 2.76533 59.645 2.75899 59.6659 2.75391ZM59.7528 2.73828C59.7413 2.73932 59.7304 2.74261 59.7196 2.74414C59.752 2.73956 59.7876 2.73535 59.826 2.73535L59.7528 2.73828ZM27.5418 44.9619C27.5774 44.9326 27.6105 44.9019 27.6415 44.8711C27.6105 44.9019 27.5774 44.9326 27.5418 44.9619Z" fill="white"/>
</svg>
